<svg width="393" height="44" viewBox="0 0 393 44" fill="none" xmlns="http://www.w3.org/2000/svg">
<mask id="path-1-outside-1_315_41" maskUnits="userSpaceOnUse" x="-2" y="-2" width="399" height="48" fill="black">
<rect fill="white" x="-2" y="-2" width="399" height="48"/>
<path d="M0.0120002 0.991999H19.895C23.789 0.991999 27.034 1.877 29.512 3.647C31.99 5.417 33.288 8.013 33.288 11.553C33.288 13.559 32.757 15.27 31.754 16.804C30.692 18.338 29.335 19.459 27.565 20.226C32.639 21.701 35.235 25.123 35.235 30.492C35.235 34.504 33.878 37.572 31.223 39.755C28.509 41.938 25.146 43 21.016 43H0.0120002V0.991999ZM8.98 8.131V18.043H17.358C21.96 18.043 24.32 16.391 24.32 13.146C24.32 11.199 23.671 9.901 22.432 9.193C21.134 8.485 19.482 8.131 17.358 8.131H8.98ZM8.98 24.297L8.921 35.743H18.184C20.603 35.743 22.491 35.33 23.907 34.563C25.323 33.737 26.031 32.262 26.031 30.02C26.031 27.719 25.264 26.185 23.789 25.418C22.314 24.651 20.308 24.297 17.771 24.297H8.98ZM73.119 0.991999V8.544H50.758V17.689H71.29V24.946H50.758V35.271H73.532V43H41.613V0.991999H73.119ZM110.964 13.5L102.173 13.559C101.819 9.37 99.1638 7.305 94.2078 7.305C92.0838 7.305 90.4318 7.718 89.2518 8.544C88.0718 9.37 87.4228 10.55 87.4228 12.084C87.4228 12.556 87.5408 13.028 87.6588 13.441C87.8358 13.795 88.1308 14.149 88.5438 14.503C89.0158 14.857 89.4288 15.093 89.8418 15.329C90.3138 15.565 90.9628 15.801 91.7888 16.037C92.6148 16.273 93.3818 16.509 94.0898 16.745C94.7978 16.922 95.7418 17.158 96.9808 17.512C98.2788 17.807 99.3408 18.102 100.285 18.397C104.415 19.577 107.542 21.052 109.548 22.822C111.554 24.592 112.557 27.129 112.557 30.433C112.557 32.793 112.085 34.917 111.082 36.687C110.138 38.457 108.781 39.873 107.129 40.935C105.477 41.997 103.648 42.764 101.642 43.236C99.6358 43.708 97.5118 44.003 95.2698 44.003C89.6058 44.003 85.1218 42.646 81.9358 40.05C78.7498 37.454 77.0978 33.737 77.0388 29.017H86.1838C86.3608 34.268 89.5468 36.923 95.6828 36.923C98.1018 36.923 99.9898 36.392 101.406 35.389C102.822 34.386 103.471 33.029 103.471 31.318C103.471 29.843 102.881 28.781 101.583 28.132C100.285 27.424 97.6298 26.539 93.4998 25.359C93.2638 25.3 93.0868 25.241 92.9688 25.241C92.8508 25.182 92.7328 25.123 92.4968 25.064C92.3198 25.005 92.1428 24.946 91.9658 24.946C90.5498 24.533 89.6058 24.238 89.0158 24.061C88.4848 23.884 87.5998 23.589 86.4198 23.176C85.2398 22.704 84.3548 22.35 83.8238 21.996C83.2338 21.642 82.5848 21.111 81.7588 20.521C80.9328 19.872 80.4018 19.223 80.0478 18.515C79.6938 17.807 79.3398 16.981 79.0448 15.978C78.7498 14.975 78.6318 13.913 78.6318 12.733C78.6318 8.898 80.1068 5.83 83.0568 3.529C86.0068 1.287 89.9008 0.106997 94.7978 0.106997C99.5178 0.106997 103.353 1.228 106.362 3.47C109.312 5.712 110.846 9.016 110.964 13.5ZM149.397 0.991999V8.839H136.771V43H127.508V8.839H114.882V0.991999H149.397ZM201.768 13.5L192.977 13.559C192.623 9.37 189.968 7.305 185.012 7.305C182.888 7.305 181.236 7.718 180.056 8.544C178.876 9.37 178.227 10.55 178.227 12.084C178.227 12.556 178.345 13.028 178.463 13.441C178.64 13.795 178.935 14.149 179.348 14.503C179.82 14.857 180.233 15.093 180.646 15.329C181.118 15.565 181.767 15.801 182.593 16.037C183.419 16.273 184.186 16.509 184.894 16.745C185.602 16.922 186.546 17.158 187.785 17.512C189.083 17.807 190.145 18.102 191.089 18.397C195.219 19.577 198.346 21.052 200.352 22.822C202.358 24.592 203.361 27.129 203.361 30.433C203.361 32.793 202.889 34.917 201.886 36.687C200.942 38.457 199.585 39.873 197.933 40.935C196.281 41.997 194.452 42.764 192.446 43.236C190.44 43.708 188.316 44.003 186.074 44.003C180.41 44.003 175.926 42.646 172.74 40.05C169.554 37.454 167.902 33.737 167.843 29.017H176.988C177.165 34.268 180.351 36.923 186.487 36.923C188.906 36.923 190.794 36.392 192.21 35.389C193.626 34.386 194.275 33.029 194.275 31.318C194.275 29.843 193.685 28.781 192.387 28.132C191.089 27.424 188.434 26.539 184.304 25.359C184.068 25.3 183.891 25.241 183.773 25.241C183.655 25.182 183.537 25.123 183.301 25.064C183.124 25.005 182.947 24.946 182.77 24.946C181.354 24.533 180.41 24.238 179.82 24.061C179.289 23.884 178.404 23.589 177.224 23.176C176.044 22.704 175.159 22.35 174.628 21.996C174.038 21.642 173.389 21.111 172.563 20.521C171.737 19.872 171.206 19.223 170.852 18.515C170.498 17.807 170.144 16.981 169.849 15.978C169.554 14.975 169.436 13.913 169.436 12.733C169.436 8.898 170.911 5.83 173.861 3.529C176.811 1.287 180.705 0.106997 185.602 0.106997C190.322 0.106997 194.157 1.228 197.166 3.47C200.116 5.712 201.65 9.016 201.768 13.5ZM240.497 0.991999V8.544H218.136V17.689H238.668V24.946H218.136V35.271H240.91V43H208.991V0.991999H240.497ZM276.985 35.094V43H247.249V0.991999H256.453V35.094H276.985ZM311.958 35.094V43H282.222V0.991999H291.426V35.094H311.958ZM348.702 0.991999V8.544H326.341V17.689H346.873V24.946H326.341V35.271H349.115V43H317.196V0.991999H348.702ZM355.808 0.991999L376.694 1.051C380.824 1.051 384.246 1.995 386.901 4.001C389.497 5.948 390.854 8.957 390.854 12.969C390.854 15.388 390.264 17.512 389.084 19.341C387.904 21.17 386.252 22.468 384.187 23.294C387.786 24.002 389.851 27.306 390.382 33.088C390.382 33.265 390.382 33.855 390.5 34.917C390.559 35.92 390.618 36.746 390.736 37.336C390.795 37.926 390.913 38.693 391.031 39.578C391.149 40.404 391.326 41.171 391.562 41.761C391.798 42.351 392.034 42.764 392.388 43.059H382.83C382.476 42.41 382.24 41.584 382.122 40.64C381.945 39.696 381.827 38.457 381.709 36.923C381.591 35.389 381.532 34.563 381.532 34.386C381.178 31.436 380.47 29.43 379.29 28.25C378.11 27.129 376.104 26.539 373.154 26.539H364.953V43H355.808V0.991999ZM364.953 8.308V19.931H373.685C376.222 19.931 378.228 19.518 379.644 18.692C381.06 17.866 381.827 16.332 381.827 13.972C381.827 11.73 381.119 10.255 379.703 9.488C378.287 8.662 376.458 8.308 374.098 8.308H364.953Z"/>
</mask>
<path d="M0.0120002 0.991999V-0.608001H-1.588V0.991999H0.0120002ZM29.512 3.647L30.442 2.34502L30.442 2.34502L29.512 3.647ZM31.754 16.804L33.0695 17.7147L33.0816 17.6973L33.0932 17.6796L31.754 16.804ZM27.565 20.226L26.9288 18.7579L22.8553 20.5231L27.1184 21.7624L27.565 20.226ZM31.223 39.755L32.2258 41.0017L32.2325 40.9963L32.2392 40.9909L31.223 39.755ZM0.0120002 43H-1.588V44.6H0.0120002V43ZM8.98 8.131V6.531H7.38V8.131H8.98ZM8.98 18.043H7.38V19.643H8.98V18.043ZM22.432 9.193L23.2258 7.80381L23.2121 7.79595L23.1982 7.78837L22.432 9.193ZM8.98 24.297V22.697H7.38823L7.38002 24.2888L8.98 24.297ZM8.921 35.743L7.32102 35.7348L7.31273 37.343H8.921V35.743ZM23.907 34.563L24.6691 35.9699L24.6913 35.9578L24.7132 35.945L23.907 34.563ZM23.789 25.418L23.0508 26.8375L23.0508 26.8375L23.789 25.418ZM0.0120002 2.592H19.895V-0.608001H0.0120002V2.592ZM19.895 2.592C23.5546 2.592 26.4462 3.42338 28.582 4.94897L30.442 2.34502C27.6218 0.330621 24.0234 -0.608001 19.895 -0.608001V2.592ZM28.582 4.94897C30.5916 6.38436 31.688 8.46779 31.688 11.553H34.888C34.888 7.55821 33.3884 4.44964 30.442 2.34502L28.582 4.94897ZM31.688 11.553C31.688 13.2506 31.2462 14.6569 30.4148 15.9284L33.0932 17.6796C34.2678 15.8831 34.888 13.8674 34.888 11.553H31.688ZM30.4385 15.8933C29.5475 17.1803 28.4264 18.109 26.9288 18.7579L28.2012 21.6941C30.2436 20.809 31.8365 19.4957 33.0695 17.7147L30.4385 15.8933ZM27.1184 21.7624C29.4044 22.4269 30.9935 23.4864 32.0228 24.8587C33.0522 26.2313 33.635 28.068 33.635 30.492H36.835C36.835 27.547 36.1198 24.9882 34.5828 22.9387C33.0455 20.8891 30.7996 19.5001 28.0116 18.6896L27.1184 21.7624ZM33.635 30.492C33.635 34.1002 32.4381 36.6845 30.2068 38.5191L32.2392 40.9909C35.3179 38.4595 36.835 34.9078 36.835 30.492H33.635ZM30.2202 38.5083C27.8432 40.4202 24.8553 41.4 21.016 41.4V44.6C25.4367 44.6 29.1748 43.4558 32.2258 41.0017L30.2202 38.5083ZM21.016 41.4H0.0120002V44.6H21.016V41.4ZM1.612 43V0.991999H-1.588V43H1.612ZM7.38 8.131V18.043H10.58V8.131H7.38ZM8.98 19.643H17.358V16.443H8.98V19.643ZM17.358 19.643C19.8041 19.643 21.9307 19.2122 23.4845 18.1206C25.1371 16.9596 25.92 15.2105 25.92 13.146H22.72C22.72 14.3265 22.3229 15.0259 21.645 15.5022C20.8683 16.0478 19.5139 16.443 17.358 16.443V19.643ZM25.92 13.146C25.92 10.8237 25.1148 8.88324 23.2258 7.80381L21.6382 10.5822C22.2272 10.9188 22.72 11.5743 22.72 13.146H25.92ZM23.1982 7.78837C21.5904 6.9114 19.6492 6.531 17.358 6.531V9.731C19.3148 9.731 20.6776 10.0586 21.6658 10.5976L23.1982 7.78837ZM17.358 6.531H8.98V9.731H17.358V6.531ZM7.38002 24.2888L7.32102 35.7348L10.521 35.7512L10.58 24.3052L7.38002 24.2888ZM8.921 37.343H18.184V34.143H8.921V37.343ZM18.184 37.343C20.7694 37.343 22.9447 36.9039 24.6691 35.9699L23.1449 33.1561C22.0373 33.7561 20.4366 34.143 18.184 34.143V37.343ZM24.7132 35.945C26.7815 34.7385 27.631 32.6165 27.631 30.02H24.431C24.431 31.9075 23.8645 32.7355 23.1008 33.181L24.7132 35.945ZM27.631 30.02C27.631 27.3622 26.7155 25.1364 24.5272 23.9985L23.0508 26.8375C23.8125 27.2336 24.431 28.0758 24.431 30.02H27.631ZM24.5272 23.9985C22.7247 23.0612 20.4227 22.697 17.771 22.697V25.897C20.1933 25.897 21.9033 26.2408 23.0508 26.8375L24.5272 23.9985ZM17.771 22.697H8.98V25.897H17.771V22.697ZM73.119 0.991999H74.719V-0.608001H73.119V0.991999ZM73.119 8.544V10.144H74.719V8.544H73.119ZM50.758 8.544V6.944H49.158V8.544H50.758ZM50.758 17.689H49.158V19.289H50.758V17.689ZM71.29 17.689H72.89V16.089H71.29V17.689ZM71.29 24.946V26.546H72.89V24.946H71.29ZM50.758 24.946V23.346H49.158V24.946H50.758ZM50.758 35.271H49.158V36.871H50.758V35.271ZM73.532 35.271H75.132V33.671H73.532V35.271ZM73.532 43V44.6H75.132V43H73.532ZM41.613 43H40.013V44.6H41.613V43ZM41.613 0.991999V-0.608001H40.013V0.991999H41.613ZM71.519 0.991999V8.544H74.719V0.991999H71.519ZM73.119 6.944H50.758V10.144H73.119V6.944ZM49.158 8.544V17.689H52.358V8.544H49.158ZM50.758 19.289H71.29V16.089H50.758V19.289ZM69.69 17.689V24.946H72.89V17.689H69.69ZM71.29 23.346H50.758V26.546H71.29V23.346ZM49.158 24.946V35.271H52.358V24.946H49.158ZM50.758 36.871H73.532V33.671H50.758V36.871ZM71.932 35.271V43H75.132V35.271H71.932ZM73.532 41.4H41.613V44.6H73.532V41.4ZM43.213 43V0.991999H40.013V43H43.213ZM41.613 2.592H73.119V-0.608001H41.613V2.592ZM110.964 13.5L110.975 15.1L112.606 15.089L112.563 13.4579L110.964 13.5ZM102.173 13.559L100.578 13.6937L100.703 15.1689L102.184 15.159L102.173 13.559ZM89.2518 8.544L90.1693 9.85477L90.1693 9.85477L89.2518 8.544ZM87.6588 13.441L86.1204 13.8806L86.1612 14.0235L86.2277 14.1565L87.6588 13.441ZM88.5438 14.503L87.5025 15.7178L87.5421 15.7517L87.5838 15.783L88.5438 14.503ZM89.8418 15.329L89.048 16.7182L89.0865 16.7402L89.1263 16.7601L89.8418 15.329ZM91.7888 16.037L92.2284 14.4986L92.2284 14.4986L91.7888 16.037ZM94.0898 16.745L93.5838 18.2629L93.6421 18.2823L93.7017 18.2972L94.0898 16.745ZM96.9808 17.512L96.5413 19.0504L96.5834 19.0625L96.6262 19.0722L96.9808 17.512ZM100.285 18.397L99.8076 19.9242L99.8263 19.93L99.8453 19.9354L100.285 18.397ZM111.082 36.687L109.69 35.8982L109.68 35.916L109.67 35.9341L111.082 36.687ZM107.129 40.935L107.994 42.2809L107.994 42.2809L107.129 40.935ZM101.642 43.236L102.008 44.7935L102.008 44.7935L101.642 43.236ZM81.9358 40.05L80.9251 41.2904L80.9251 41.2904L81.9358 40.05ZM77.0388 29.017V27.417H75.4187L75.4389 29.037L77.0388 29.017ZM86.1838 29.017L87.7829 28.9631L87.7308 27.417H86.1838V29.017ZM101.406 35.389L100.481 34.0834L100.481 34.0834L101.406 35.389ZM101.583 28.132L100.817 29.5366L100.842 29.5503L100.867 29.5631L101.583 28.132ZM93.4998 25.359L93.9394 23.8206L93.9137 23.8132L93.8879 23.8068L93.4998 25.359ZM92.9688 25.241L92.2533 26.6721L92.5911 26.841H92.9688V25.241ZM92.4968 25.064L91.9909 26.5819L92.0491 26.6013L92.1087 26.6162L92.4968 25.064ZM91.9658 24.946L91.5178 26.482L91.7372 26.546H91.9658V24.946ZM89.0158 24.061L88.5098 25.5789L88.5328 25.5866L88.556 25.5935L89.0158 24.061ZM86.4198 23.176L85.8256 24.6616L85.8581 24.6746L85.8912 24.6862L86.4198 23.176ZM83.8238 21.996L84.7113 20.6647L84.6796 20.6436L84.647 20.624L83.8238 21.996ZM81.7588 20.521L80.7703 21.7791L80.7991 21.8017L80.8288 21.823L81.7588 20.521ZM80.0478 18.515L81.4789 17.7995L81.4789 17.7995L80.0478 18.515ZM79.0448 15.978L80.5798 15.5265L80.5798 15.5265L79.0448 15.978ZM83.0568 3.529L82.0887 2.25514L82.0807 2.26122L82.0728 2.26739L83.0568 3.529ZM106.362 3.47L107.33 2.19614L107.324 2.19153L107.318 2.18699L106.362 3.47ZM110.953 11.9L102.162 11.959L102.184 15.159L110.975 15.1L110.953 11.9ZM103.767 13.4243C103.562 11.0023 102.662 8.97985 100.903 7.60156C99.1871 6.25765 96.8793 5.705 94.2078 5.705V8.905C96.4923 8.905 97.99 9.38485 98.9294 10.1207C99.8249 10.8221 100.429 11.9267 100.578 13.6937L103.767 13.4243ZM94.2078 5.705C91.9035 5.705 89.8832 6.14898 88.3343 7.23323L90.1693 9.85477C90.9804 9.28702 92.2642 8.905 94.2078 8.905V5.705ZM88.3343 7.23323C86.7333 8.35391 85.8228 10.0197 85.8228 12.084H89.0228C89.0228 11.0803 89.4103 10.3861 90.1693 9.85477L88.3343 7.23323ZM85.8228 12.084C85.8228 12.7959 85.998 13.4524 86.1204 13.8806L89.1972 13.0014C89.0836 12.6036 89.0228 12.3161 89.0228 12.084H85.8228ZM86.2277 14.1565C86.5286 14.7583 86.9844 15.2737 87.5025 15.7178L89.5851 13.2882C89.2773 13.0243 89.143 12.8317 89.0899 12.7255L86.2277 14.1565ZM87.5838 15.783C88.1439 16.2031 88.6353 16.4823 89.048 16.7182L90.6356 13.9398C90.2224 13.7037 89.8877 13.5109 89.5038 13.223L87.5838 15.783ZM89.1263 16.7601C89.7242 17.0591 90.4793 17.3269 91.3493 17.5754L92.2284 14.4986C91.4463 14.2751 90.9034 14.0709 90.5573 13.8979L89.1263 16.7601ZM91.3493 17.5754C92.1562 17.806 92.9008 18.0352 93.5838 18.2629L94.5958 15.2271C93.8628 14.9828 93.0734 14.74 92.2284 14.4986L91.3493 17.5754ZM93.7017 18.2972C94.4067 18.4735 95.3292 18.7041 96.5413 19.0504L97.4204 15.9736C96.1544 15.6119 95.1889 15.3705 94.4779 15.1928L93.7017 18.2972ZM96.6262 19.0722C97.8813 19.3575 98.9024 19.6413 99.8076 19.9242L100.762 16.8698C99.7792 16.5627 98.6763 16.2565 97.3354 15.9518L96.6262 19.0722ZM99.8453 19.9354C103.879 21.088 106.742 22.4805 108.489 24.0217L110.606 21.6223C108.341 19.6235 104.95 18.066 100.724 16.8586L99.8453 19.9354ZM108.489 24.0217C110.072 25.4185 110.957 27.4713 110.957 30.433H114.157C114.157 26.7867 113.035 23.7655 110.606 21.6223L108.489 24.0217ZM110.957 30.433C110.957 32.5851 110.526 34.4221 109.69 35.8982L112.474 37.4758C113.643 35.4119 114.157 33.0009 114.157 30.433H110.957ZM109.67 35.9341C108.863 37.4468 107.702 38.6646 106.264 39.5891L107.994 42.2809C109.86 41.0814 111.412 39.4672 112.494 37.4399L109.67 35.9341ZM106.264 39.5891C104.772 40.548 103.113 41.2461 101.275 41.6785L102.008 44.7935C104.183 44.2819 106.182 43.446 107.994 42.2809L106.264 39.5891ZM101.275 41.6785C99.3703 42.1268 97.3702 42.403 95.2698 42.403V45.603C97.6534 45.603 99.9013 45.2892 102.008 44.7935L101.275 41.6785ZM95.2698 42.403C89.8472 42.403 85.7621 41.1038 82.9465 38.8096L80.9251 41.2904C84.4815 44.1882 89.3644 45.603 95.2698 45.603V42.403ZM82.9465 38.8096C80.1843 36.5589 78.6927 33.3208 78.6387 28.997L75.4389 29.037C75.5029 34.1532 77.3153 38.3491 80.9251 41.2904L82.9465 38.8096ZM77.0388 30.617H86.1838V27.417H77.0388V30.617ZM84.5847 29.0709C84.6841 32.0203 85.6485 34.4816 87.6749 36.1687C89.6585 37.8201 92.4153 38.523 95.6828 38.523V35.323C92.8143 35.323 90.9102 34.6984 89.7224 33.7095C88.5776 32.7564 87.8605 31.2647 87.7829 28.9631L84.5847 29.0709ZM95.6828 38.523C98.3299 38.523 100.571 37.9412 102.331 36.6946L100.481 34.0834C99.4089 34.8428 97.8738 35.323 95.6828 35.323V38.523ZM102.331 36.6946C104.196 35.373 105.071 33.5149 105.071 31.318H101.871C101.871 32.5431 101.447 33.399 100.481 34.0834L102.331 36.6946ZM105.071 31.318C105.071 30.3673 104.88 29.4389 104.396 28.6091C103.907 27.7708 103.183 27.1431 102.298 26.7009L100.867 29.5631C101.281 29.7699 101.501 29.9977 101.632 30.2214C101.767 30.4536 101.871 30.7937 101.871 31.318H105.071ZM102.349 26.7274C100.865 25.9177 98.024 24.9876 93.9394 23.8206L93.0603 26.8974C97.2356 28.0904 99.7051 28.9303 100.817 29.5366L102.349 26.7274ZM93.8879 23.8068C93.8431 23.7956 93.7992 23.7839 93.7478 23.7702C93.7015 23.7577 93.6384 23.7407 93.5781 23.7256C93.5176 23.7105 93.4352 23.691 93.3442 23.6751C93.256 23.6597 93.1239 23.641 92.9688 23.641V26.841C92.918 26.841 92.8773 26.8379 92.85 26.835C92.8225 26.8322 92.8026 26.8289 92.7926 26.8272C92.7753 26.8242 92.774 26.8231 92.802 26.8301C92.8302 26.8372 92.863 26.8459 92.9199 26.8612C92.9718 26.8751 93.0385 26.8929 93.1118 26.9112L93.8879 23.8068ZM93.6843 23.8099C93.5182 23.7268 93.2821 23.6111 92.8849 23.5118L92.1087 26.6162C92.163 26.6298 92.1821 26.6378 92.1828 26.6381C92.1877 26.64 92.1928 26.6418 92.2533 26.6721L93.6843 23.8099ZM93.0028 23.5461C92.8795 23.505 92.4493 23.346 91.9658 23.346V26.546C91.9213 26.546 91.8877 26.5423 91.8677 26.5394C91.848 26.5365 91.8388 26.534 91.8432 26.5351C91.848 26.5363 91.8608 26.5397 91.8868 26.5478C91.8995 26.5518 91.914 26.5565 91.9316 26.5622C91.9496 26.5681 91.9681 26.5743 91.9909 26.5819L93.0028 23.5461ZM92.4138 23.41C91.0036 22.9987 90.0868 22.7118 89.4756 22.5285L88.556 25.5935C89.1248 25.7641 90.096 26.0673 91.5178 26.482L92.4138 23.41ZM89.5218 22.5431C88.9927 22.3668 88.1168 22.0748 86.9484 21.6658L85.8912 24.6862C87.0828 25.1032 87.9769 25.4012 88.5098 25.5789L89.5218 22.5431ZM87.014 21.6904C85.7535 21.1862 85.0678 20.9024 84.7113 20.6647L82.9363 23.3273C83.6418 23.7976 84.7261 24.2218 85.8256 24.6616L87.014 21.6904ZM84.647 20.624C84.124 20.3102 83.6463 19.903 82.6888 19.219L80.8288 21.823C81.5233 22.319 82.3436 22.9738 83.0006 23.368L84.647 20.624ZM82.7473 19.2629C82.0767 18.736 81.7112 18.2641 81.4789 17.7995L78.6167 19.2305C79.0924 20.1819 79.7889 21.008 80.7703 21.7791L82.7473 19.2629ZM81.4789 17.7995C81.1586 17.1588 80.8431 16.4216 80.5798 15.5265L77.5098 16.4295C77.8366 17.5404 78.2291 18.4552 78.6167 19.2305L81.4789 17.7995ZM80.5798 15.5265C80.3394 14.7093 80.2318 13.8072 80.2318 12.733H77.0318C77.0318 14.0188 77.1602 15.2407 77.5098 16.4295L80.5798 15.5265ZM80.2318 12.733C80.2318 9.37654 81.4908 6.77965 84.0409 4.7906L82.0728 2.26739C78.7228 4.88035 77.0318 8.41946 77.0318 12.733H80.2318ZM84.0249 4.80286C86.6312 2.82209 90.1584 1.707 94.7978 1.707V-1.493C89.6432 -1.493 85.3824 -0.248094 82.0887 2.25514L84.0249 4.80286ZM94.7978 1.707C99.2607 1.707 102.736 2.76352 105.406 4.75301L107.318 2.18699C103.97 -0.307523 99.7749 -1.493 94.7978 -1.493V1.707ZM105.394 4.74386C107.881 6.63433 109.256 9.43865 109.364 13.5421L112.563 13.4579C112.435 8.59335 110.742 4.78967 107.33 2.19614L105.394 4.74386ZM149.397 0.991999H150.997V-0.608001H149.397V0.991999ZM149.397 8.839V10.439H150.997V8.839H149.397ZM136.771 8.839V7.239H135.171V8.839H136.771ZM136.771 43V44.6H138.371V43H136.771ZM127.508 43H125.908V44.6H127.508V43ZM127.508 8.839H129.108V7.239H127.508V8.839ZM114.882 8.839H113.282V10.439H114.882V8.839ZM114.882 0.991999V-0.608001H113.282V0.991999H114.882ZM147.797 0.991999V8.839H150.997V0.991999H147.797ZM149.397 7.239H136.771V10.439H149.397V7.239ZM135.171 8.839V43H138.371V8.839H135.171ZM136.771 41.4H127.508V44.6H136.771V41.4ZM129.108 43V8.839H125.908V43H129.108ZM127.508 7.239H114.882V10.439H127.508V7.239ZM116.482 8.839V0.991999H113.282V8.839H116.482ZM114.882 2.592H149.397V-0.608001H114.882V2.592ZM201.768 13.5L201.779 15.1L203.411 15.089L203.368 13.4579L201.768 13.5ZM192.977 13.559L191.383 13.6937L191.508 15.1689L192.988 15.159L192.977 13.559ZM180.056 8.544L180.974 9.85477L180.974 9.85477L180.056 8.544ZM178.463 13.441L176.925 13.8806L176.966 14.0235L177.032 14.1565L178.463 13.441ZM179.348 14.503L178.307 15.7178L178.347 15.7517L178.388 15.783L179.348 14.503ZM180.646 15.329L179.853 16.7182L179.891 16.7402L179.931 16.7601L180.646 15.329ZM182.593 16.037L183.033 14.4986L183.033 14.4986L182.593 16.037ZM184.894 16.745L184.389 18.2629L184.447 18.2823L184.506 18.2972L184.894 16.745ZM187.785 17.512L187.346 19.0504L187.388 19.0625L187.431 19.0722L187.785 17.512ZM191.089 18.397L190.612 19.9242L190.631 19.93L190.65 19.9354L191.089 18.397ZM201.886 36.687L200.494 35.8982L200.484 35.916L200.475 35.9341L201.886 36.687ZM197.933 40.935L198.799 42.2809L198.799 42.2809L197.933 40.935ZM192.446 43.236L192.813 44.7935L192.813 44.7935L192.446 43.236ZM172.74 40.05L171.73 41.2904L171.73 41.2904L172.74 40.05ZM167.843 29.017V27.417H166.223L166.244 29.037L167.843 29.017ZM176.988 29.017L178.588 28.9631L178.535 27.417H176.988V29.017ZM192.21 35.389L191.286 34.0834L191.286 34.0834L192.21 35.389ZM192.387 28.132L191.621 29.5366L191.646 29.5503L191.672 29.5631L192.387 28.132ZM184.304 25.359L184.744 23.8206L184.718 23.8132L184.693 23.8068L184.304 25.359ZM183.773 25.241L183.058 26.6721L183.396 26.841H183.773V25.241ZM183.301 25.064L182.796 26.5819L182.854 26.6013L182.913 26.6162L183.301 25.064ZM182.77 24.946L182.322 26.482L182.542 26.546H182.77V24.946ZM179.82 24.061L179.315 25.5789L179.338 25.5866L179.361 25.5935L179.82 24.061ZM177.224 23.176L176.63 24.6616L176.663 24.6746L176.696 24.6862L177.224 23.176ZM174.628 21.996L175.516 20.6647L175.484 20.6436L175.452 20.624L174.628 21.996ZM172.563 20.521L171.575 21.7791L171.604 21.8017L171.634 21.823L172.563 20.521ZM170.852 18.515L172.284 17.7995L172.284 17.7995L170.852 18.515ZM169.849 15.978L171.384 15.5265L171.384 15.5265L169.849 15.978ZM173.861 3.529L172.893 2.25514L172.885 2.26122L172.877 2.26739L173.861 3.529ZM197.166 3.47L198.135 2.19614L198.129 2.19153L198.122 2.18699L197.166 3.47ZM201.758 11.9L192.967 11.959L192.988 15.159L201.779 15.1L201.758 11.9ZM194.572 13.4243C194.367 11.0023 193.467 8.97985 191.707 7.60156C189.992 6.25765 187.684 5.705 185.012 5.705V8.905C187.297 8.905 188.795 9.38485 189.734 10.1207C190.63 10.8221 191.234 11.9267 191.383 13.6937L194.572 13.4243ZM185.012 5.705C182.708 5.705 180.688 6.14898 179.139 7.23323L180.974 9.85477C181.785 9.28702 183.069 8.905 185.012 8.905V5.705ZM179.139 7.23323C177.538 8.35391 176.627 10.0197 176.627 12.084H179.827C179.827 11.0803 180.215 10.3861 180.974 9.85477L179.139 7.23323ZM176.627 12.084C176.627 12.7959 176.803 13.4524 176.925 13.8806L180.002 13.0014C179.888 12.6036 179.827 12.3161 179.827 12.084H176.627ZM177.032 14.1565C177.333 14.7583 177.789 15.2737 178.307 15.7178L180.39 13.2882C180.082 13.0243 179.948 12.8317 179.895 12.7255L177.032 14.1565ZM178.388 15.783C178.949 16.2031 179.44 16.4823 179.853 16.7182L181.44 13.9398C181.027 13.7037 180.692 13.5109 180.308 13.223L178.388 15.783ZM179.931 16.7601C180.529 17.0591 181.284 17.3269 182.154 17.5754L183.033 14.4986C182.251 14.2751 181.708 14.0709 181.362 13.8979L179.931 16.7601ZM182.154 17.5754C182.961 17.806 183.705 18.0352 184.389 18.2629L185.4 15.2271C184.667 14.9828 183.878 14.74 183.033 14.4986L182.154 17.5754ZM184.506 18.2972C185.211 18.4735 186.134 18.7041 187.346 19.0504L188.225 15.9736C186.959 15.6119 185.994 15.3705 185.283 15.1928L184.506 18.2972ZM187.431 19.0722C188.686 19.3575 189.707 19.6413 190.612 19.9242L191.567 16.8698C190.584 16.5627 189.481 16.2565 188.14 15.9518L187.431 19.0722ZM190.65 19.9354C194.684 21.088 197.547 22.4805 199.294 24.0217L201.411 21.6223C199.146 19.6235 195.755 18.066 191.529 16.8586L190.65 19.9354ZM199.294 24.0217C200.877 25.4185 201.761 27.4713 201.761 30.433H204.961C204.961 26.7867 203.84 23.7655 201.411 21.6223L199.294 24.0217ZM201.761 30.433C201.761 32.5851 201.331 34.4221 200.494 35.8982L203.279 37.4758C204.448 35.4119 204.961 33.0009 204.961 30.433H201.761ZM200.475 35.9341C199.668 37.4468 198.506 38.6646 197.068 39.5891L198.799 42.2809C200.665 41.0814 202.217 39.4672 203.298 37.4399L200.475 35.9341ZM197.068 39.5891C195.577 40.548 193.918 41.2461 192.08 41.6785L192.813 44.7935C194.987 44.2819 196.986 43.446 198.799 42.2809L197.068 39.5891ZM192.08 41.6785C190.175 42.1268 188.175 42.403 186.074 42.403V45.603C188.458 45.603 190.706 45.2892 192.813 44.7935L192.08 41.6785ZM186.074 42.403C180.652 42.403 176.567 41.1038 173.751 38.8096L171.73 41.2904C175.286 44.1882 180.169 45.603 186.074 45.603V42.403ZM173.751 38.8096C170.989 36.5589 169.497 33.3208 169.443 28.997L166.244 29.037C166.308 34.1532 168.12 38.3491 171.73 41.2904L173.751 38.8096ZM167.843 30.617H176.988V27.417H167.843V30.617ZM175.389 29.0709C175.489 32.0203 176.453 34.4816 178.48 36.1687C180.463 37.8201 183.22 38.523 186.487 38.523V35.323C183.619 35.323 181.715 34.6984 180.527 33.7095C179.382 32.7564 178.665 31.2647 178.588 28.9631L175.389 29.0709ZM186.487 38.523C189.135 38.523 191.375 37.9412 193.135 36.6946L191.286 34.0834C190.214 34.8428 188.678 35.323 186.487 35.323V38.523ZM193.135 36.6946C195.001 35.373 195.875 33.5149 195.875 31.318H192.675C192.675 32.5431 192.252 33.399 191.286 34.0834L193.135 36.6946ZM195.875 31.318C195.875 30.3673 195.684 29.4389 195.2 28.6091C194.711 27.7708 193.987 27.1431 193.103 26.7009L191.672 29.5631C192.086 29.7699 192.306 29.9977 192.436 30.2214C192.572 30.4536 192.675 30.7937 192.675 31.318H195.875ZM193.154 26.7274C191.669 25.9177 188.829 24.9876 184.744 23.8206L183.865 26.8974C188.04 28.0904 190.51 28.9303 191.621 29.5366L193.154 26.7274ZM184.693 23.8068C184.648 23.7956 184.604 23.7839 184.553 23.7702C184.506 23.7577 184.443 23.7407 184.383 23.7256C184.322 23.7105 184.24 23.691 184.149 23.6751C184.061 23.6597 183.929 23.641 183.773 23.641V26.841C183.723 26.841 183.682 26.8379 183.655 26.835C183.627 26.8322 183.607 26.8289 183.597 26.8272C183.58 26.8242 183.579 26.8231 183.607 26.8301C183.635 26.8372 183.668 26.8459 183.725 26.8612C183.777 26.8751 183.843 26.8929 183.916 26.9112L184.693 23.8068ZM184.489 23.8099C184.323 23.7268 184.087 23.6111 183.69 23.5118L182.913 26.6162C182.968 26.6298 182.987 26.6378 182.988 26.6381C182.992 26.64 182.997 26.6418 183.058 26.6721L184.489 23.8099ZM183.807 23.5461C183.684 23.505 183.254 23.346 182.77 23.346V26.546C182.726 26.546 182.692 26.5423 182.672 26.5394C182.653 26.5365 182.643 26.534 182.648 26.5351C182.653 26.5363 182.666 26.5397 182.692 26.5478C182.704 26.5518 182.719 26.5565 182.736 26.5622C182.754 26.5681 182.773 26.5743 182.796 26.5819L183.807 23.5461ZM183.218 23.41C181.808 22.9987 180.891 22.7118 180.28 22.5285L179.361 25.5935C179.929 25.7641 180.901 26.0673 182.322 26.482L183.218 23.41ZM180.326 22.5431C179.797 22.3668 178.922 22.0748 177.753 21.6658L176.696 24.6862C177.887 25.1032 178.782 25.4012 179.315 25.5789L180.326 22.5431ZM177.819 21.6904C176.558 21.1862 175.872 20.9024 175.516 20.6647L173.741 23.3273C174.446 23.7976 175.531 24.2218 176.63 24.6616L177.819 21.6904ZM175.452 20.624C174.929 20.3102 174.451 19.903 173.493 19.219L171.634 21.823C172.328 22.319 173.148 22.9738 173.805 23.368L175.452 20.624ZM173.552 19.2629C172.881 18.736 172.516 18.2641 172.284 17.7995L169.421 19.2305C169.897 20.1819 170.594 21.008 171.575 21.7791L173.552 19.2629ZM172.284 17.7995C171.963 17.1588 171.648 16.4216 171.384 15.5265L168.315 16.4295C168.641 17.5404 169.034 18.4552 169.421 19.2305L172.284 17.7995ZM171.384 15.5265C171.144 14.7093 171.036 13.8072 171.036 12.733H167.836C167.836 14.0188 167.965 15.2407 168.315 16.4295L171.384 15.5265ZM171.036 12.733C171.036 9.37654 172.295 6.77965 174.846 4.7906L172.877 2.26739C169.527 4.88035 167.836 8.41946 167.836 12.733H171.036ZM174.83 4.80286C177.436 2.82209 180.963 1.707 185.602 1.707V-1.493C180.448 -1.493 176.187 -0.248094 172.893 2.25514L174.83 4.80286ZM185.602 1.707C190.065 1.707 193.54 2.76352 196.211 4.75301L198.122 2.18699C194.775 -0.307523 190.58 -1.493 185.602 -1.493V1.707ZM196.198 4.74386C198.686 6.63433 200.061 9.43865 200.169 13.5421L203.368 13.4579C203.24 8.59335 201.547 4.78967 198.135 2.19614L196.198 4.74386ZM240.497 0.991999H242.097V-0.608001H240.497V0.991999ZM240.497 8.544V10.144H242.097V8.544H240.497ZM218.136 8.544V6.944H216.536V8.544H218.136ZM218.136 17.689H216.536V19.289H218.136V17.689ZM238.668 17.689H240.268V16.089H238.668V17.689ZM238.668 24.946V26.546H240.268V24.946H238.668ZM218.136 24.946V23.346H216.536V24.946H218.136ZM218.136 35.271H216.536V36.871H218.136V35.271ZM240.91 35.271H242.51V33.671H240.91V35.271ZM240.91 43V44.6H242.51V43H240.91ZM208.991 43H207.391V44.6H208.991V43ZM208.991 0.991999V-0.608001H207.391V0.991999H208.991ZM238.897 0.991999V8.544H242.097V0.991999H238.897ZM240.497 6.944H218.136V10.144H240.497V6.944ZM216.536 8.544V17.689H219.736V8.544H216.536ZM218.136 19.289H238.668V16.089H218.136V19.289ZM237.068 17.689V24.946H240.268V17.689H237.068ZM238.668 23.346H218.136V26.546H238.668V23.346ZM216.536 24.946V35.271H219.736V24.946H216.536ZM218.136 36.871H240.91V33.671H218.136V36.871ZM239.31 35.271V43H242.51V35.271H239.31ZM240.91 41.4H208.991V44.6H240.91V41.4ZM210.591 43V0.991999H207.391V43H210.591ZM208.991 2.592H240.497V-0.608001H208.991V2.592ZM276.985 35.094H278.585V33.494H276.985V35.094ZM276.985 43V44.6H278.585V43H276.985ZM247.249 43H245.649V44.6H247.249V43ZM247.249 0.991999V-0.608001H245.649V0.991999H247.249ZM256.453 0.991999H258.053V-0.608001H256.453V0.991999ZM256.453 35.094H254.853V36.694H256.453V35.094ZM275.385 35.094V43H278.585V35.094H275.385ZM276.985 41.4H247.249V44.6H276.985V41.4ZM248.849 43V0.991999H245.649V43H248.849ZM247.249 2.592H256.453V-0.608001H247.249V2.592ZM254.853 0.991999V35.094H258.053V0.991999H254.853ZM256.453 36.694H276.985V33.494H256.453V36.694ZM311.958 35.094H313.558V33.494H311.958V35.094ZM311.958 43V44.6H313.558V43H311.958ZM282.222 43H280.622V44.6H282.222V43ZM282.222 0.991999V-0.608001H280.622V0.991999H282.222ZM291.426 0.991999H293.026V-0.608001H291.426V0.991999ZM291.426 35.094H289.826V36.694H291.426V35.094ZM310.358 35.094V43H313.558V35.094H310.358ZM311.958 41.4H282.222V44.6H311.958V41.4ZM283.822 43V0.991999H280.622V43H283.822ZM282.222 2.592H291.426V-0.608001H282.222V2.592ZM289.826 0.991999V35.094H293.026V0.991999H289.826ZM291.426 36.694H311.958V33.494H291.426V36.694ZM348.702 0.991999H350.302V-0.608001H348.702V0.991999ZM348.702 8.544V10.144H350.302V8.544H348.702ZM326.341 8.544V6.944H324.741V8.544H326.341ZM326.341 17.689H324.741V19.289H326.341V17.689ZM346.873 17.689H348.473V16.089H346.873V17.689ZM346.873 24.946V26.546H348.473V24.946H346.873ZM326.341 24.946V23.346H324.741V24.946H326.341ZM326.341 35.271H324.741V36.871H326.341V35.271ZM349.115 35.271H350.715V33.671H349.115V35.271ZM349.115 43V44.6H350.715V43H349.115ZM317.196 43H315.596V44.6H317.196V43ZM317.196 0.991999V-0.608001H315.596V0.991999H317.196ZM347.102 0.991999V8.544H350.302V0.991999H347.102ZM348.702 6.944H326.341V10.144H348.702V6.944ZM324.741 8.544V17.689H327.941V8.544H324.741ZM326.341 19.289H346.873V16.089H326.341V19.289ZM345.273 17.689V24.946H348.473V17.689H345.273ZM346.873 23.346H326.341V26.546H346.873V23.346ZM324.741 24.946V35.271H327.941V24.946H324.741ZM326.341 36.871H349.115V33.671H326.341V36.871ZM347.515 35.271V43H350.715V35.271H347.515ZM349.115 41.4H317.196V44.6H349.115V41.4ZM318.796 43V0.991999H315.596V43H318.796ZM317.196 2.592H348.702V-0.608001H317.196V2.592ZM355.808 0.991999L355.812 -0.607994L354.208 -0.612527V0.991999H355.808ZM376.694 1.051L376.689 2.651H376.694V1.051ZM386.901 4.001L385.936 5.27759L385.941 5.281L386.901 4.001ZM389.084 19.341L390.428 20.2084L390.428 20.2084L389.084 19.341ZM384.187 23.294L383.593 21.8084L378.566 23.819L383.878 24.8639L384.187 23.294ZM390.382 33.088H391.982V33.0147L391.975 32.9417L390.382 33.088ZM390.5 34.917L392.097 34.823L392.095 34.7816L392.09 34.7403L390.5 34.917ZM390.736 37.336L392.328 37.1768L392.32 37.0989L392.305 37.0222L390.736 37.336ZM391.031 39.578L389.445 39.7895L389.446 39.7969L389.447 39.8043L391.031 39.578ZM391.562 41.761L393.047 41.1668L393.047 41.1668L391.562 41.761ZM392.388 43.059V44.659H396.807L393.412 41.8298L392.388 43.059ZM382.83 43.059L381.425 43.8252L381.88 44.659H382.83V43.059ZM382.122 40.64L383.709 40.4415L383.703 40.3931L383.694 40.3451L382.122 40.64ZM381.709 36.923L380.114 37.0457L380.114 37.0457L381.709 36.923ZM381.532 34.386H383.132V34.2903L383.12 34.1954L381.532 34.386ZM379.29 28.25L380.421 27.1186L380.407 27.1041L380.392 27.09L379.29 28.25ZM364.953 26.539V24.939H363.353V26.539H364.953ZM364.953 43V44.6H366.553V43H364.953ZM355.808 43H354.208V44.6H355.808V43ZM364.953 8.308V6.708H363.353V8.308H364.953ZM364.953 19.931H363.353V21.531H364.953V19.931ZM379.644 18.692L380.45 20.074L380.45 20.074L379.644 18.692ZM379.703 9.488L378.897 10.87L378.918 10.8828L378.941 10.8949L379.703 9.488ZM355.803 2.59199L376.689 2.65099L376.698 -0.548995L355.812 -0.607994L355.803 2.59199ZM376.694 2.651C380.584 2.651 383.635 3.53864 385.936 5.27759L387.865 2.72441C384.857 0.451357 381.063 -0.549002 376.694 -0.549002V2.651ZM385.941 5.281C388.05 6.86261 389.254 9.34501 389.254 12.969H392.454C392.454 8.56899 390.944 5.03338 387.861 2.721L385.941 5.281ZM389.254 12.969C389.254 15.1158 388.734 16.9314 387.739 18.4736L390.428 20.2084C391.793 18.0926 392.454 15.6602 392.454 12.969H389.254ZM387.739 18.4736C386.755 19.9992 385.378 21.0944 383.593 21.8084L384.781 24.7796C387.126 23.8416 389.053 22.3408 390.428 20.2084L387.739 18.4736ZM383.878 24.8639C385.216 25.127 386.267 25.8501 387.081 27.1417C387.928 28.4848 388.535 30.4784 388.789 33.2343L391.975 32.9417C391.697 29.9156 391.006 27.3662 389.788 25.4348C388.538 23.4519 386.757 22.169 384.496 21.7241L383.878 24.8639ZM388.782 33.088C388.782 33.3091 388.784 33.9599 388.91 35.0937L392.09 34.7403C391.98 33.7501 391.982 33.2209 391.982 33.088H388.782ZM388.903 35.011C388.96 35.9864 389.023 36.9299 389.167 37.6498L392.305 37.0222C392.213 36.562 392.158 35.8536 392.097 34.823L388.903 35.011ZM389.144 37.4952C389.206 38.1192 389.334 38.9565 389.445 39.7895L392.617 39.3665C392.492 38.4295 392.383 37.7328 392.328 37.1768L389.144 37.4952ZM389.447 39.8043C389.574 40.696 389.775 41.6012 390.076 42.3552L393.047 41.1668C392.877 40.7408 392.723 40.112 392.615 39.3517L389.447 39.8043ZM390.076 42.3552C390.343 43.0219 390.7 43.7354 391.364 44.2882L393.412 41.8298C393.367 41.7926 393.253 41.6801 393.047 41.1668L390.076 42.3552ZM392.388 41.459H382.83V44.659H392.388V41.459ZM384.234 42.2928C384.004 41.8706 383.811 41.2532 383.709 40.4415L380.534 40.8385C380.669 41.9148 380.948 42.9494 381.425 43.8252L384.234 42.2928ZM383.694 40.3451C383.536 39.4977 383.423 38.3399 383.304 36.8003L380.114 37.0457C380.231 38.5741 380.354 39.8943 380.549 40.9349L383.694 40.3451ZM383.304 36.8003C383.245 36.0338 383.201 35.4483 383.172 35.0336C383.158 34.8259 383.147 34.6653 383.14 34.5481C383.132 34.4153 383.132 34.3762 383.132 34.386H379.932C379.932 34.6437 380 35.5661 380.114 37.0457L383.304 36.8003ZM383.12 34.1954C382.756 31.1594 381.996 28.6938 380.421 27.1186L378.158 29.3814C378.943 30.1662 379.6 31.7126 379.943 34.5766L383.12 34.1954ZM380.392 27.09C378.764 25.5431 376.243 24.939 373.154 24.939V28.139C375.965 28.139 377.456 28.7149 378.188 29.41L380.392 27.09ZM373.154 24.939H364.953V28.139H373.154V24.939ZM363.353 26.539V43H366.553V26.539H363.353ZM364.953 41.4H355.808V44.6H364.953V41.4ZM357.408 43V0.991999H354.208V43H357.408ZM363.353 8.308V19.931H366.553V8.308H363.353ZM364.953 21.531H373.685V18.331H364.953V21.531ZM373.685 21.531C376.359 21.531 378.688 21.1017 380.45 20.074L378.838 17.31C377.767 17.9343 376.084 18.331 373.685 18.331V21.531ZM380.45 20.074C382.517 18.8685 383.427 16.6891 383.427 13.972H380.227C380.227 15.9749 379.603 16.8635 378.838 17.31L380.45 20.074ZM383.427 13.972C383.427 11.393 382.585 9.22958 380.465 8.08113L378.941 10.8949C379.653 11.2804 380.227 12.067 380.227 13.972H383.427ZM380.509 8.10595C378.746 7.07738 376.592 6.708 374.098 6.708V9.908C376.323 9.908 377.828 10.2466 378.897 10.87L380.509 8.10595ZM374.098 6.708H364.953V9.908H374.098V6.708Z" fill="#251D1B" fill-opacity="0.29" mask="url(#path-1-outside-1_315_41)"/>
</svg>
